<svg width="72" height="72" viewBox="0 0 72 72" fill="none" xmlns="http://www.w3.org/2000/svg">
<path opacity="0.3" d="M61.4411 61.4409C47.4815 75.4302 24.8492 75.5193 10.7708 61.7082C20.7207 71.4205 36.6702 71.3314 46.5311 61.4706C56.4513 51.5206 56.4513 35.3928 46.5014 25.4726C36.5514 15.5227 20.4237 15.5524 10.5035 25.5023C0.672352 35.3334 0.612949 51.2533 10.2956 61.2033C-3.51552 47.1249 -3.42642 24.5518 10.5332 10.5625C24.5818 -3.51589 47.3627 -3.51589 61.4411 10.5328C75.4898 24.5816 75.4898 47.3922 61.4411 61.4409Z" fill="#872CE3"/>
<path opacity="0.6" d="M46.5318 61.4404C36.671 71.3012 20.7214 71.3903 10.7715 61.678C10.6824 61.5889 10.623 61.5295 10.5339 61.4404L10.5042 61.4107C16.3553 67.2321 25.8003 67.2321 31.6515 61.4107C37.4729 55.5595 37.4729 46.1145 31.6515 40.2633C25.8003 34.4716 16.3256 34.4716 10.5042 40.293C4.7124 46.0848 4.6827 55.4407 10.3853 61.2919C10.3853 61.2919 10.3853 61.2919 10.3556 61.2622C10.3556 61.2622 10.3556 61.2622 10.3259 61.2325L10.2962 61.2028L10.2665 61.1731C0.613624 51.2528 0.673027 35.3329 10.5339 25.4721C20.4838 15.5222 36.5819 15.5222 46.5318 25.4424C56.4817 35.3923 56.4817 51.5201 46.5318 61.4404Z" fill="#872CE3"/>
<path opacity="0.4" d="M10.501 61.4367C10.4421 61.3778 10.3832 61.3188 10.3242 61.2599L10.3537 61.2894C10.4126 61.3483 10.4716 61.4073 10.501 61.4367Z" fill="#872CE3"/>
<path d="M31.6495 61.4421C25.8281 67.2932 16.3534 67.2932 10.5022 61.4421C10.4428 61.3827 10.4131 61.353 10.3537 61.2936C4.65109 55.4424 4.68079 46.0865 10.4725 40.2947C16.294 34.4435 25.7687 34.4435 31.6198 40.2947C37.471 46.1162 37.471 55.5909 31.6495 61.4421Z" fill="#872CE3"/>
</svg>
